# xmcd
#
# Track frame offsets:
#	150
#	15340
#	27992
#	44725
#	57515
#	70587
#	85673
#	106127
#	120443
#	133264
#	154147
#	172367
#	185698
#	201882
#	215357
#	226417
#	243498
#	265528
#	282471
#	299579
#
# Disc length: 4164 seconds
#
# Revision: 1
# Processed by: cddbd v1.5.1PL2 Copyright (c) Steve Scherf et al.
# Submitted via: audiograbber 1.83.01
#
DISCID=2c104214
DTITLE=Conway Twitty - Gold - Disc Two
DYEAR=2006
DGENRE=Country
TTITLE0=Play, Guitar, Play
TTITLE1=I've Already Loved You In My Mind
TTITLE2=Don't Take It Away
TTITLE3=I May Never Get To Heaven
TTITLE4=Happy Birthday Darlin'
TTITLE5=I'd Love To Lay You Down
TTITLE6=Rest Your Love On Me
TTITLE7=I Still Believe In Waltzes
TTITLE8=Tight Fittin' Jeans
TTITLE9=Red Neckin' Love Makin' Night
TTITLE10=The Clown
TTITLE11=Slow Hand
TTITLE12=The Rose
TTITLE13=I Don't Know A Thing About Love (The Moon Song)
TTITLE14=Desperado Love
TTITLE15=Julia
TTITLE16=That's My Job
TTITLE17=She's Got A Single Thing On Her Mind
TTITLE18=Crazy In Love
TTITLE19=I Couldn't See You Leavin'
EXTD=
EXTT0=
EXTT1=
EXTT2=
EXTT3=
EXTT4=
EXTT5=
EXTT6=
EXTT7=
EXTT8=
EXTT9=
EXTT10=
EXTT11=
EXTT12=
EXTT13=
EXTT14=
EXTT15=
EXTT16=
EXTT17=
EXTT18=
EXTT19=
PLAYORDER=
